<?xml version="1.0" encoding="UTF-8"?>
<svg width="60px" height="60px" viewBox="0 0 60 60" version="1.1" xmlns="http://www.w3.org/2000/svg" xmlns:xlink="http://www.w3.org/1999/xlink">
    <title>ic_camera</title>
    <g id="页面-1" stroke="none" stroke-width="1" fill="none" fill-rule="evenodd">
        <g id="新增增项单-展开" transform="translate(-285.000000, -845.000000)" fill="#989EA9" fill-rule="nonzero">
            <g id="形状备份-2" transform="translate(285.000000, 845.000000)">
                <path d="M40.5,33.4987531 C40.5,27.7630923 35.8333333,23.1745636 30,23.1745636 C24.1666667,23.1745636 19.5,27.7630923 19.5,33.4987531 C19.5,39.234414 24.1666667,43.8229426 30,43.8229426 C35.8333333,43.8229426 40.5,39.234414 40.5,33.4987531 Z M23,33.4987531 C23,29.713217 26.15,26.6159601 30,26.6159601 C33.85,26.6159601 37,29.713217 37,33.4987531 C37,37.2842893 33.85,40.3815461 30,40.3815461 C26.15,40.3815461 23,37.2842893 23,33.4987531 Z M53.9166667,13.9975062 L33.3833333,13.9975062 C33.2666667,13.9975062 33.0333333,13.882793 32.9166667,13.7680798 L28.4833333,8.49127182 C27.6666667,7.57356608 26.6166667,7 25.3333333,7 L18.2166667,7 C17.05,7 15.8833333,7.57356608 15.0666667,8.49127182 L10.6333333,13.7680798 C10.5166667,13.882793 10.4,13.9975062 10.1666667,13.9975062 L5.96666667,13.9975062 C3.86666667,13.9975062 2,15.8329177 2,18.0124688 L2,24.8952618 C2,25.8129676 2.81666667,26.6159601 3.75,26.6159601 L12.5,26.6159601 C13.4333333,26.6159601 14.25,25.8129676 14.25,24.8952618 C14.25,23.9775561 13.4333333,23.1745636 12.5,23.1745636 L5.5,23.1745636 L5.5,18.0124688 C5.5,17.6683292 5.73333333,17.4389027 6.08333333,17.4389027 L10.2833333,17.4389027 C11.45,17.4389027 12.6166667,16.8653367 13.4333333,15.9476309 L17.8666667,10.6708229 C17.9833333,10.5561097 18.1,10.4413965 18.3333333,10.4413965 L25.45,10.4413965 C25.5666667,10.4413965 25.8,10.5561097 25.9166667,10.6708229 L30.35,15.9476309 C31.1666667,16.8653367 32.2166667,17.4389027 33.5,17.4389027 L54.0333333,17.4389027 C54.3833333,17.4389027 54.6166667,17.6683292 54.6166667,18.0124688 L54.6166667,48.9850374 C54.6166667,49.3291771 54.3833333,49.5586035 54.0333333,49.5586035 L6.2,49.5586035 C5.85,49.5586035 5.61666667,49.3291771 5.61666667,48.9850374 L5.61666667,35.7930175 C5.61666667,34.8753117 4.8,34.0723192 3.86666667,34.0723192 C2.93333333,34.0723192 2,34.8753117 2,35.7930175 L2,48.9850374 C2,51.1645885 3.86666667,53 6.08333333,53 L53.9166667,53 C56.1333333,53 58,51.1645885 58,48.9850374 L58,18.0124688 C58,15.8329177 56.1333333,13.9975062 53.9166667,13.9975062 Z" id="形状备份"></path>
            </g>
        </g>
    </g>
</svg>