<?xml version="1.0" encoding="UTF-8"?>
<svg width="60px" height="60px" viewBox="0 0 60 60" version="1.1" xmlns="http://www.w3.org/2000/svg" xmlns:xlink="http://www.w3.org/1999/xlink">
    <title>ic_video</title>
    <g id="页面-1" stroke="none" stroke-width="1" fill="currentColor" fill-rule="evenodd">
        <g id="新增增项单-展开" transform="translate(-115.000000, -845.000000)" fill="#989EA9" fill-rule="nonzero">
            <g id="ic_video-2" transform="translate(115.000000, 845.000000)">
                <path d="M45.1567944,9 C47.1550012,9 48.7870725,10.5738802 48.8902881,12.5542722 L48.8954704,12.7536232 L48.8954704,20.5997101 L54.7072438,16.5161023 C55.8922511,15.6832808 57.507413,15.9277379 58.3992018,17.0450959 L58.5068244,17.1892972 C58.7876981,17.5921496 58.9546304,18.062369 58.9919748,18.5501208 L59,18.7600854 L59,41.2399146 C59,42.7526946 57.778533,43.9790451 56.271777,43.9790451 C55.7819912,43.9790451 55.302577,43.846695 54.8831707,43.5977038 L54.7072438,43.4838977 L48.8954704,39.3992754 L48.8954704,47.2463768 C48.8954704,49.2525725 47.3278575,50.8911687 45.3553516,50.994797 L45.1567944,51 L4.73867596,51 C2.74046914,51 1.10839793,49.4261198 1.00518231,47.4457278 L1,47.2463768 L1,31.0144928 C1,30.0620017 1.76907184,29.2898551 2.71777003,29.2898551 C3.61653674,29.2898551 4.35408756,29.982862 4.42923483,30.8656844 L4.43554007,31.0144928 L4.43554007,47.2463768 C4.43554007,47.3904511 4.53525166,47.5111434 4.66916968,47.5426866 L4.73867596,47.5507246 L45.1567944,47.5507246 C45.300295,47.5507246 45.4205067,47.4506144 45.4519243,47.316161 L45.4599303,47.2463768 L45.4599303,36.0869565 C45.4599303,34.7397978 46.9182516,33.9310253 48.0435635,34.5970342 L48.1627768,34.6740783 L55.5644599,39.8750725 L55.5644599,20.123913 L48.1627768,25.3259217 C47.0635361,26.0984665 45.56731,25.3627873 45.465429,24.0552791 L45.4599303,23.9130435 L45.4599303,12.7536232 C45.4599303,12.6095489 45.3602187,12.4888566 45.2263007,12.4573134 L45.1567944,12.4492754 L4.73867596,12.4492754 C4.59517539,12.4492754 4.47496371,12.5493856 4.4435461,12.683839 L4.43554007,12.7536232 L4.43554007,19.1449275 L10.8013937,19.1449275 C11.7001604,19.1449275 12.4377113,19.8379344 12.5128585,20.7207569 L12.5191638,20.8695652 C12.5191638,21.7719252 11.8289165,22.5124247 10.9496095,22.5878724 L10.8013937,22.5942029 L2.71777003,22.5942029 C1.81900332,22.5942029 1.08145251,21.901196 1.00630524,21.0183736 L1,20.8695652 L1,12.7536232 C1,10.7474275 2.56761292,9.1088313 4.54011879,9.00520303 L4.73867596,9 L45.1567944,9 Z M22.2575904,19.4959898 C22.8284881,19.4959898 23.3851191,19.6736602 23.8496776,20.0041664 L23.8496776,20.0041664 L35.2926841,28.1451946 C36.5236838,29.0209787 36.8088045,30.7248906 35.929519,31.9509884 C35.7538321,32.1959706 35.5386458,32.4103 35.2926841,32.5852873 L35.2926841,32.5852873 L23.8496776,40.7263155 C22.618678,41.6020996 20.9079538,41.3181143 20.0286683,40.0920166 C19.6968407,39.6293079 19.51846,39.0748935 19.51846,38.5062692 L19.51846,38.5062692 L19.51846,22.2242127 C19.51846,20.7174568 20.7448105,19.4959898 22.2575904,19.4959898 Z M22.9677353,23.597227 L22.9677353,37.1322444 L32.4796194,30.365241 L22.9677353,23.597227 Z" id="ic_video"></path>
            </g>
        </g>
    </g>
</svg>